<svg id="Layer_1" data-name="Layer 1" xmlns="http://www.w3.org/2000/svg" viewBox="0 0 57.67 75.53"><defs><style>.cls-1{fill:#0079c0;}</style></defs><circle class="cls-1" cx="28.81" cy="10.98" r="10.71"/><path class="cls-1" d="M14.07,32.41H43.54a6.7,6.7,0,0,0-6.7-6.7H20.77A6.7,6.7,0,0,0,14.07,32.41Z"/><path class="cls-1" d="M.48,35.58a1.32,1.32,0,0,0-.27,1.13L9.5,74.21a1.33,1.33,0,0,0,1.34,1.05h36a1.34,1.34,0,0,0,1.34-1.05l9.29-37.5a1.34,1.34,0,0,0-1-1.59.82.82,0,0,0-.31,0H1.55A1.33,1.33,0,0,0,.48,35.58Zm28.33,6.2A10.72,10.72,0,1,1,18.09,52.5,10.72,10.72,0,0,1,28.81,41.78Z"/></svg>